# xmcd CD database file
#
# Track frame offsets:
#	150
#	26217
#	41925
#	66492
#	93315
#	114867
#	136012
#	158120
#	185750
#	201897
#	217567
#	238432
#
# Disc length: 3391 seconds
#
# Revision: 0
# Processed by: cddbd v1.5PL3 Copyright (c) Steve Scherf et al.
# Submitted via: CDex 1.50
#
DISCID=ac0d3d0c
DTITLE=David Matthews and The Masters - Without You
DYEAR=2003
DGENRE=Fusion
TTITLE0=Borderline
TTITLE1=Easy Lover
TTITLE2=DeDo Do Do De Da Da Da
TTITLE3=I'll Be The One
TTITLE4=Without You
TTITLE5=Kiss On My List
TTITLE6=A Whole New World(Aladdin's theme)
TTITLE7=I'll Remember
TTITLE8=Dream Lover
TTITLE9=Against All Odds
TTITLE10=Heart Of Mine
TTITLE11=The Power Of Love
EXTD=YEAR: 2003/07/27
EXTT0=
EXTT1=
EXTT2=
EXTT3=
EXTT4=
EXTT5=
EXTT6=
EXTT7=
EXTT8=
EXTT9=
EXTT10=
EXTT11=
PLAYORDER=
